<svg xmlns="http://www.w3.org/2000/svg" width="600" height="600" viewBox="0 0 600 600" version="1.1">
	<path d="M 71.202 145.665 L 71.500 152.500 79.635 153.175 C 89.909 154.027, 95.929 156.953, 102.741 164.407 C 108.695 170.922, 114.379 181.773, 130.030 216.500 C 136.226 230.250, 148.697 257.475, 157.743 277 C 184.404 334.548, 191.218 349.764, 215.031 404.933 L 237.662 457.365 241.581 458.500 C 244.894 459.460, 246.196 459.343, 250 457.740 C 252.475 456.697, 260.350 454.139, 267.500 452.056 L 280.500 448.268 290.999 423.555 C 297.892 407.329, 301.779 399.298, 302.316 400.171 C 302.767 400.902, 308.654 414.295, 315.400 429.933 L 327.666 458.366 331.583 459.501 C 334.893 460.460, 336.197 460.342, 340 458.740 C 342.475 457.697, 350.346 455.135, 357.492 453.047 L 370.484 449.249 384.588 416.375 C 399.608 381.368, 438.203 293.938, 455.827 255 C 461.677 242.075, 474.193 215.928, 483.642 196.897 C 497.813 168.352, 501.479 161.750, 504.583 159.193 C 508.621 155.863, 515.105 154.010, 522.799 153.985 C 529.549 153.963, 530.160 153.302, 529.805 146.407 L 529.500 140.500 516 141 C 496.846 141.709, 440.749 141.027, 439.524 140.069 C 438.961 139.629, 430.850 139.673, 421.500 140.168 C 405.180 141.032, 364.725 140.614, 343.250 139.360 L 333 138.761 333 145.335 L 333 151.909 336.250 152.409 C 338.038 152.683, 343.550 153.101, 348.500 153.336 C 359.247 153.848, 365.455 156.045, 367.538 160.074 C 369.553 163.970, 369.368 173.242, 367.098 182.116 C 364.472 192.383, 320.838 298.945, 313.556 312.873 C 312.165 315.534, 312.793 316.876, 277.774 236.500 C 256.189 186.958, 252.986 178.965, 251.694 171.426 C 249.554 158.930, 253.948 155.448, 273.081 154.476 C 279.361 154.156, 285.962 153.673, 287.750 153.402 L 291 152.909 291 146.335 L 291 139.760 279.750 140.361 C 273.563 140.691, 253.313 141.251, 234.750 141.604 C 203.295 142.203, 201 142.130, 201 140.533 C 201 138.963, 199.883 138.881, 187.750 139.557 C 169.613 140.567, 86.093 140.626, 77.702 139.634 L 70.905 138.831 71.202 145.665 M 170.500 155.012 C 159.344 157.395, 158.381 165.743, 166.842 186.728 C 184.624 230.833, 266.833 414.613, 268.150 413.204 C 269.542 411.714, 288.320 369.419, 288.240 367.953 C 288.145 366.228, 271.479 329.215, 247.286 277 C 238.494 258.025, 226.229 231.250, 220.032 217.500 C 204.378 182.773, 198.693 171.920, 192.746 165.413 C 185.521 157.507, 177.147 153.592, 170.500 155.012 M 418.500 155.512 C 416.850 156.403, 414.449 158.115, 413.164 159.316 C 410.766 161.559, 389.257 203.632, 375.496 233 C 363.710 258.152, 326 343.222, 326 344.657 C 326 345.697, 335.955 367.922, 354.996 409.395 C 356.484 412.638, 357.946 414.888, 358.244 414.395 C 359.130 412.932, 387.295 350.583, 399.983 322 C 425.268 265.037, 454.038 195.081, 457.094 183.134 C 458.142 179.034, 459 173.030, 459 169.790 C 459 157.604, 454.705 154.885, 434.500 154.280 C 423.882 153.962, 420.950 154.188, 418.500 155.512" stroke="none" fill="black" fill-rule="evenodd"/>
</svg>